<svg width="26" height="26" viewBox="0 0 26 26" fill="none" xmlns="http://www.w3.org/2000/svg">
<g clip-path="url(#clip0)">
<path d="M1.3438 26.0001C1.00131 26.0001 0.658829 25.8698 0.39862 25.6076C-0.123759 25.0853 -0.123759 24.2383 0.39862 23.716L23.7228 0.391784C24.2452 -0.130595 25.0921 -0.130595 25.6145 0.391784C26.1368 0.914162 26.1368 1.76107 25.6145 2.28377L2.29061 25.6076C2.02844 25.8682 1.68596 26.0001 1.3438 26.0001Z" fill="white"/>
<path d="M24.6696 26.0001C24.3271 26.0001 23.985 25.8698 23.7244 25.6076L0.39862 2.28377C-0.123759 1.76107 -0.123759 0.914162 0.39862 0.391784C0.920998 -0.130595 1.7679 -0.130595 2.29061 0.391784L25.6145 23.716C26.1368 24.2383 26.1368 25.0853 25.6145 25.6076C25.3523 25.8682 25.0101 26.0001 24.6696 26.0001Z" fill="white"/>
</g>
<defs>
<clipPath id="clip0">
<rect width="26" height="26" fill="white"/>
</clipPath>
</defs>
</svg>
